# xmcd
#
# Track frame offsets: 
#        150
#        19088
#        34460
#        53413
#        68450
#        83933
#        101311
#        123036
#        135692
#
# Disc length: 2018 seconds
#
# Revision: 0
# Processed by: cddbd v1.5.2PL0 Copyright (c) Steve Scherf et al.
# Submitted via: ExactAudioCopy v1.3
#
DISCID=6707e009
DTITLE=Jack Broadbent - Moonshine Blue
DYEAR=2019
DGENRE=Folk/Rock
TTITLE0=Moonshine Blue
TTITLE1=If
TTITLE2=The Other Side
TTITLE3=Everytime I Drown
TTITLE4=This Town
TTITLE5=The Lucky Ones
TTITLE6=Tonight
TTITLE7=Wishing Well
TTITLE8=Too Late
EXTD=
EXTT0=
EXTT1=
EXTT2=
EXTT3=
EXTT4=
EXTT5=
EXTT6=
EXTT7=
EXTT8=
PLAYORDER=
